<svg width="474" height="476" xmlns="http://www.w3.org/2000/svg" xml:space="preserve" version="1.1">

 <g>
  <title>Layer 1</title>
  <path id="svg_1" fill="#1A3B73" clip-rule="evenodd" fill-rule="evenodd" d="m15.96083,15.96084l442.3,0l0,444.3l-442.3,0l0,-444.3z" class="st0"/>
  <path id="svg_2" fill="#1A3B73" clip-rule="evenodd" fill-rule="evenodd" d="m458.36083,156.26084l-99.9,0l0,-140.3l99.9,0l0,140.3z" class="st0"/>
  <path id="svg_3" fill="#FFFFFF" clip-rule="evenodd" fill-rule="evenodd" d="m178.26083,151.56084l103.8,0l0,9.4c-11.7,1.6 -19.5,3.9 -23.4,8.6c-4.7,3.9 -7,14.9 -7,31.3l0,146.5c0,23.5 3.1,42.3 9.4,55.6c10.9,24.3 32.8,36 64.7,36.8c35.1,0 58.5,-12.5 71,-37.6c6.2,-14.1 10.1,-35.2 10.1,-65l0,-118.2c0,-25.1 -3.1,-40 -8.6,-46.2c-5.5,-6.3 -15.6,-11 -32,-12.5l-5.5,0l0,-7.8l97.5,-0.7l0,9.5c-12.5,2.1 -21,6.4 -25,12.4c-5.5,6.3 -7.8,21.2 -7.8,45.4l0,118.3c0,32.1 -4.7,56.4 -14,74.4c-16.4,32.1 -48.4,48.6 -95.2,48.6c-46,0 -78,-16.4 -95.2,-48.6c-8.6,-16.5 -13.3,-39.2 -13.3,-68.2l0,-142.7c0,-16.5 -2.3,-26.6 -7,-31.3c-3.9,-3.9 -11.7,-6.3 -22.6,-7.8l0.1,-10.2l0,0z" class="st1"/>
  <path id="svg_4" fill="#FFFFFF" clip-rule="evenodd" fill-rule="evenodd" d="m178.26083,15.96084l0,8.6c-22.6,1.6 -37.4,5.5 -43.7,11.8c-7,6.3 -10.1,19.6 -10.1,41.5l0,189.6c0,31.4 3.9,55.7 12.5,72.9c15.6,31.3 45.3,47 89.7,47.8c48.4,0 80.3,-16.5 96.7,-48.6c9.4,-18 14,-46.2 14,-83.8l0,-154.4c0,-32.1 -3.9,-52.5 -11.7,-61.1c-7,-7.8 -21.8,-13.3 -43.7,-15.7l0,-8.6l136.5,0l0,8.6c-22.6,2.3 -37.4,7.8 -44.5,17.2c-7,7.8 -10.9,28.2 -10.9,59.5l0,154.4c0,40.7 -5.5,72.1 -18.7,95.6c-22.6,42.3 -66.3,63.5 -131,63.5c-64,0 -106.9,-21.2 -130.3,-62.7c-12.5,-21.9 -18.7,-51.7 -18.7,-88.5l0,-185.7c0,-21.2 -3.1,-34.5 -10.1,-41.5c-5.7,-5 -18.7,-8.7 -38.2,-11.1l0,-9.2l162.2,0l0,-0.1z" class="st1"/>
  <path id="svg_5" stroke-miterlimit="33.89" stroke-width="2.3216" stroke="#1A3B73" fill="none" d="m1.16083,1.16084l472,0l0,474l-472,0l0,-474" class="st2"/>
 </g>
</svg>