<svg xmlns="http://www.w3.org/2000/svg" viewBox="0 0 24 24"><path fill="#4FC3F7" d="M18.62 11.999A6.625 6.625 0 0 0 12 5.376v.003a6.623 6.623 0 0 0-6.62 6.62c0 3.654 2.966 6.62 6.62 6.62s6.62-2.966 6.62-6.62zm-5.742-1.559h.993v.356c.144-.125.296-.233.46-.323.148-.08.314-.12.484-.12a.939.939 0 0 1 .514.14c.153.1.27.244.34.414.19-.177.37-.314.54-.41a1.034 1.034 0 0 1 .911-.07c.115.044.22.116.3.21.09.106.16.23.2.364.045.142.066.328.066.553v2.076h-.995V12.032c0-.157 0-.29-.007-.397a.784.784 0 0 0-.052-.263.264.264 0 0 0-.13-.15.615.615 0 0 0-.478.002c-.086.04-.168.087-.244.14v2.263h-.993v-1.595c0-.156-.003-.286-.01-.396a.876.876 0 0 0-.05-.264.29.29 0 0 0-.136-.15.53.53 0 0 0-.25-.048.556.556 0 0 0-.24.056c-.078.04-.152.086-.228.136v2.262h-.995V10.44zm-3.74 3.183h-.995v-.336l-.182.154a1.351 1.351 0 0 1-.477.233c-.082.02-.202.035-.352.035a.94.94 0 0 1-.698-.285.972.972 0 0 1-.277-.716c0-.238.046-.427.14-.574.1-.15.24-.27.405-.348.205-.09.423-.152.646-.18.25-.033.516-.06.803-.078v-.017c0-.176-.066-.297-.196-.363-.13-.07-.322-.102-.58-.102-.117 0-.254.02-.41.063-.158.044-.308.1-.458.164H6.42v-.77c.097-.03.256-.062.48-.1.217-.04.438-.06.663-.06.55 0 .95.092 1.2.276.25.183.375.462.375.837v2.167zm2.52.059a2.115 2.115 0 0 1-.336.022c-.263 0-.506-.033-.723-.1a1.532 1.532 0 0 1-.57-.307 1.367 1.367 0 0 1-.373-.52 1.866 1.866 0 0 1-.135-.738c-.008-.27.042-.535.146-.78.09-.204.224-.384.392-.53.165-.134.355-.233.56-.29.22-.066.447-.096.675-.096.37 0 .732.087 1.06.255v.854h-.127a2.47 2.47 0 0 0-.147-.124 1.285 1.285 0 0 0-.188-.126 1.068 1.068 0 0 0-.55-.14c-.254 0-.45.086-.59.263-.138.177-.21.414-.21.714 0 .32.075.56.225.715a.78.78 0 0 0 .592.235c.11 0 .222-.013.33-.042a1.07 1.07 0 0 0 .415-.225c.048-.04.088-.082.123-.11h.13v.843l.001.001c-.07.028-.134.056-.2.086-.074.03-.15.058-.23.08a4.518 4.518 0 0 1-.27.06z"/><path fill="#4FC3F7" d="M24 12 12 0 0 12l12 12 12-12zM4.643 12A7.362 7.362 0 0 1 12 4.642 7.36 7.36 0 0 1 19.357 12 7.36 7.36 0 0 1 12 19.357 7.36 7.36 0 0 1 4.643 12z"/><path fill="#4FC3F7" d="M7.434 12.25a.428.428 0 0 0-.201.135.417.417 0 0 0-.07.245c0 .15.038.252.12.308.077.056.194.082.352.082a.79.79 0 0 0 .509-.225v-.66c-.168.015-.303.03-.405.045-.105.01-.207.034-.305.07z"/></svg>