<svg width="717" height="707" xmlns="http://www.w3.org/2000/svg" xml:space="preserve" version="1.1">

 <g>
  <title>Layer 1</title>
  <path id="svg_1" fill="#366DB4" clip-rule="evenodd" fill-rule="evenodd" d="m402.53497,45.31001c22,27.9 45.2,57.2 69.1,83.7l58.9,61.5c52.3,52.1 109.2,99.2 170.2,140.8c0.2,0.1 0.4,0.2 0.6,0.2l1.3,0.2c0.2,0 0.4,0.1 0.6,0.2c7.6,5.1 12.6,13.4 13.5,22.6c0,0.1 0,0.2 0,0.2c-0.4,19.4 -22.8,23.4 -34.6,33.9c0,0 -0.1,0 -0.1,0.1c-117.9,85.5 -223.4,191.3 -306.6,309.2c0,0.1 -0.1,0.1 -0.2,0.2l-6.5,6.5c-0.1,0.1 -0.2,0.2 -0.3,0.3c-6.7,4 -15.4,2.3 -22.4,-0.1c-9,-3 -10,-12.7 -15.7,-18.8c-0.1,-0.1 -0.1,-0.1 -0.1,-0.2c-18.4,-28.5 -41.8,-55.3 -61.9,-81.9c0,0 -0.1,-0.1 -0.1,-0.1c-11.8,-12 -21.7,-24.6 -33.8,-37.4c-68.4,-75 -145.3,-140.7 -225.7,-196.1c-0.1,-0.1 -0.2,-0.1 -0.2,-0.2c-5.7,-5.8 -10.4,-13.3 -7.8,-22.4c2.5,-10.2 14.3,-16.3 22.2,-22.5c100.5,-68.9 192.6,-158.8 270.3,-255.2l48.4,-63c0.1,-0.1 0.2,-0.2 0.3,-0.3c6.4,-4.8 14.9,-8.9 22.7,-5.4c3.5,0.9 7.5,4.1 10.8,6.1c0.2,0.1 0.3,0.2 0.4,0.4l26.7,37.5l0,0z" class="st0"/>
  <path id="svg_2" fill="#FFFFFF" clip-rule="evenodd" fill-rule="evenodd" d="m333.13497,99.41001c-22.7,16.2 -44.7,33.4 -65.9,51.6c0,0 -0.1,0.1 -0.1,0.1c-1.8,1.1 -3.8,3.5 -5,4.7c0,0 0,0 -0.1,0.1c-50.5,45 -100.4,94.4 -141.2,146.3c-11.5,14.9 -23.6,29.5 -28.1,47.2c0,0.1 0,0.3 -0.1,0.4c-0.1,9.4 1.4,18.3 6.4,25.4c34.5,51.5 80.3,100.7 125.8,142.9c39.3,35 77.1,73.5 122,97c14.8,6.9 31.4,-1.1 43.7,-9.9c61,-42.9 115.4,-96.7 167,-152.2c0,0 0,0 0.1,-0.1c23.8,-29.2 51.1,-56 64.6,-89.5c0,-0.1 0.1,-0.1 0.1,-0.2c3.6,-13.3 -2.2,-24.6 -8.7,-34.6c-40.3,-57.5 -89.2,-111.9 -142,-160.9c-0.1,-0.1 -0.2,-0.1 -0.3,-0.2l-3.1,-1.8c-0.1,-0.1 -0.2,-0.1 -0.3,-0.2c-19,-18.4 -40.7,-36.4 -61.5,-52.3c-19.8,-16.9 -49.6,-32.2 -73.3,-13.8l0,0z" class="st1"/>
  <path id="svg_3" fill="#366DB4" clip-rule="evenodd" fill-rule="evenodd" d="m341.93497,113.91001c-75.1,51.9 -147.5,122.3 -205.7,194.1c0,0 0,0.1 -0.1,0.1c-11.9,17.4 -32.5,34 -23.2,57.2c6.7,17.1 21.8,29.4 31.5,44.5c0,0 0.1,0.1 0.1,0.1c57,68.5 124.4,132.5 194.7,183.9c0,0 0.1,0 0.1,0.1c30.9,19.6 52.9,-12.1 76.8,-26.8c0,0 0.1,-0.1 0.1,-0.1c49,-38.6 94.4,-85.6 137.3,-131.4c0.3,-0.3 0.4,-0.6 0.4,-1l0,0c0,-0.4 0.1,-0.7 0.3,-1c17.1,-20.8 35.3,-41.2 48.6,-63.5c5.9,-11.1 3,-26.2 -3.6,-35.9c-52.1,-75.5 -120.5,-142.2 -193,-200.6c0,0 0,0 -0.1,-0.1c-18.4,-13.1 -40.1,-36 -64.2,-19.6l0,0z" class="st0"/>
  <path id="svg_4" fill="#FFFFFF" clip-rule="evenodd" fill-rule="evenodd" d="m357.23497,161.31001l-6.6,21l-32.2,92.4c-0.3,0.9 0.3,1.9 1.3,2c7.8,0.5 17.1,-0.1 24.5,0.6l0,0.8l-4.7,106c0,0.3 0.1,0.7 0.3,0.9l0.1,0.2c0.3,0.4 0.7,0.6 1.1,0.6c10,0.9 22.2,1.3 32.4,-0.2c0.7,-0.1 1.3,-0.8 1.3,-1.5l0,-0.3l-4.3,-103.3c0,-0.1 0,-0.2 0,-0.3l0.4,-2.1c0.1,-0.7 0.7,-1.2 1.5,-1.2l25.6,-0.4c1,0 1.8,-1.1 1.4,-2c-14.2,-37.6 -27.9,-75.3 -41.2,-113.3l-0.9,0l0,0.1z" class="st1"/>
  <path id="svg_5" fill="#FFFFFF" clip-rule="evenodd" fill-rule="evenodd" d="m245.23497,308.91001c-18.4,9.2 -45.5,23.2 -42.6,48.3c0,0.1 0,0.2 0.1,0.3c4,13.7 18.9,22.6 30.7,28.3c65.4,28.8 152.2,29.8 221.3,8.2c0,0 0.1,0 0.1,0c17.1,-6.5 39.8,-16 43,-36.8c0,-0.1 0,-0.2 0,-0.3c-0.3,-17.2 -18.5,-28 -31.6,-34.5l0,-0.8c4.6,-1.8 9.9,-3.5 14.6,-4l0,-0.5c-22.2,-3.9 -43.6,-9.7 -64.9,-15.3c-1.2,-0.3 -2.2,0.9 -1.8,2c3.5,8.6 6.3,17.4 9.3,26.2c0.3,0.8 1.1,1.2 1.9,0.9c6.2,-1.9 12.6,-3.4 19.1,-4.3c0.3,0 0.5,0 0.8,0.1c11.8,4.6 28.4,11.2 30.1,25.8c1.3,13.8 -13.7,20.5 -23.2,26.1c-0.1,0 -0.2,0.1 -0.2,0.1c-50.6,18.4 -107.6,20.2 -160.4,6.2c-14.5,-4.6 -35.4,-10.4 -37.4,-28.7c0,-0.3 0,-0.6 0.1,-0.8c10,-23 34.5,-28.7 56,-34.3c1.3,-0.3 1.5,-2 0.4,-2.7c-10.4,-6.6 -20.9,-12.6 -31,-20c-0.3,-0.2 -0.6,-0.3 -1,-0.3c-11.9,1 -22.7,6.1 -33.4,10.8zm93.5,106.2c-1.9,37.3 -2.4,71.9 -5.1,109.4c-0.1,0.8 0.5,1.5 1.4,1.6c14.2,1.2 30,2.4 45,0.4c0.8,-0.1 1.3,-0.8 1.3,-1.6l-4.7,-104.3c0,-0.1 0,-0.1 0,-0.2l-0.6,-3.7c-0.1,-0.8 -0.8,-1.3 -1.6,-1.3c-11.7,0.6 -22.8,1 -35.7,-0.3l0,0z" class="st1"/>
  <path id="svg_6" fill="#366DB4" clip-rule="evenodd" fill-rule="evenodd" d="m476.33497,650.41001l0,-3.4c0,-0.8 0.7,-1.5 1.5,-1.5l2.5,0c2.2,0 5.1,0.2 5.1,2.9c0,3 -1.5,3.5 -4.1,3.5l-3.6,0c-0.7,0 -1.4,-0.7 -1.4,-1.5zm0,6l1.8,0c0.6,0 1.1,0.3 1.3,0.8l5.3,9.7c0.3,0.5 0.8,0.8 1.3,0.8l3.3,0c1.2,0 1.9,-1.3 1.3,-2.3l-4.4,-7.6c-0.5,-0.8 -0.1,-1.9 0.8,-2.2c2.6,-0.7 4.5,-2.7 4.5,-6.7c0,-6.1 -4.1,-8.1 -11,-8.1l-8.5,0c-0.8,0 -1.5,0.7 -1.5,1.5l0,23.8c0,0.8 0.7,1.5 1.5,1.5l2.7,0c0.8,0 1.5,-0.7 1.5,-1.5l0.1,-9.7c0,0 0,0 0,0zm29.1,-2.1c0,-15.7 -11.8,-24.9 -25,-24.9c-33.3,0.2 -33.3,49.6 0,49.8c13.2,0 25,-9.2 25,-24.9zm-7.2,0c0,11.5 -8.2,19.2 -17.8,19.2l0,-0.1c-23.7,-0.1 -23.7,-38 0,-38.2c9.6,0 17.8,7.6 17.8,19.1z" class="st0"/>
 </g>
</svg>